<?xml version="1.0" standalone="no"?>
<!DOCTYPE svg PUBLIC "-//W3C//DTD SVG 1.1//EN" "http://www.w3.org/Graphics/SVG/1.1/DTD/svg11.dtd" >
<svg xmlns="http://www.w3.org/2000/svg">
<metadata>Generated by IcoMoon</metadata>
<defs>
<font id="icomoon" horiz-adv-x="1024">
<font-face units-per-em="1024" ascent="960" descent="-64" />
<missing-glyph horiz-adv-x="1024" />
<glyph unicode="&#x20;" horiz-adv-x="512" d="" />
<glyph unicode="&#xe900;" glyph-name="bar_only_def" d="M832 848h-640c-44.2 0-80-35.8-80-80v-640c0-44.2 35.8-80 80-80h640c44.2 0 80 35.8 80 80v640c0 44.2-35.8 80-80 80z" />
<glyph unicode="&#xe901;" glyph-name="bar_only_sel" d="M832 848h-640c-44.2 0-80-35.8-80-80v-640c0-44.2 35.8-80 80-80h640c44.2 0 80 35.8 80 80v640c0 44.2-35.8 80-80 80zM773.8 540.4l-277.2-277.2c-9.4-9.4-21.8-13.6-34.6-14.6-1.6-0.2-3.2-0.8-4.8-0.8s-3.2 0.6-4.8 0.8c-12.8 0.8-25.2 5-34.6 14.6l-147.4 147.4c-21.8 21.8-20.4 58.4 3 81.8s60 24.8 81.8 3l102-102 231.8 231.8c21.8 21.8 58.4 20.4 81.8-3s24.6-60 3-81.8z" />
<glyph unicode="&#xe902;" glyph-name="QQ" d="M194.56 389.973c-27.307-66.56-30.72-129.707-10.24-141.653 15.36-8.533 37.547 10.24 59.733 44.373 8.533-37.547 30.72-69.973 61.44-97.28-32.427-11.947-52.907-32.427-52.907-54.613 0-37.547 56.32-68.267 126.293-68.267 63.147 0 116.053 23.893 124.587 58.027 3.413 0 11.947 0 15.36 0 10.24-32.427 61.44-58.027 126.293-58.027 69.973 0 126.293 30.72 126.293 68.267 0 22.187-20.48 42.667-52.907 54.613 30.72 27.307 52.907 59.733 61.44 97.28 22.187-34.133 46.080-52.907 59.733-44.373 22.187 11.947 17.067 75.093-10.24 141.653-20.48 51.2-49.493 90.453-71.68 98.987 0 3.413 0 6.827 0 10.24 0 20.48-5.12 39.253-15.36 52.907 0 1.707 0 1.707 0 3.413 0 8.533-1.707 17.067-5.12 25.6-3.413 134.827-88.747 242.347-225.28 242.347s-221.867-107.52-226.987-242.347c-3.413-6.827-5.12-15.36-5.12-25.6 0-1.707 0-1.707 0-3.413-8.533-15.36-13.653-34.133-13.653-52.907 0-3.413 0-6.827 0-10.24-22.187-8.533-51.2-47.787-71.68-98.987z" />
<glyph unicode="&#xe903;" glyph-name="code" d="M592.213 779.093v-421.547h-421.547v421.547h421.547zM250.88 437.76h261.12v261.12h-261.12v-261.12zM512 236.373v80.213h80.213v-80.213h-80.213zM651.947 698.88v80.213h80.213v-80.213h-80.213zM170.667 318.293v-80.213h281.6v80.213h-281.6zM651.947 357.547v281.6h80.213v-281.6h-80.213zM310.613 639.147v-139.947h139.947v139.947h-139.947zM651.947 116.907v201.387h201.387v-201.387h-201.387zM713.387 176.64h80.213v80.213h-80.213v-80.213zM773.12 357.547h80.213v80.213h-80.213v-80.213zM773.12 497.493h80.213v281.6h-80.213v-281.6zM170.667 116.907h80.213v80.213h-80.213v-80.213zM310.613 197.12h300.373v-80.213h-300.373v80.213z" />
<glyph unicode="&#xe904;" glyph-name="share_30" d="M609.28 448c0 0-1.707 0-1.707 0-8.533 1.707-15.36 10.24-13.653 18.773l13.653 95.573-95.573 13.653c-8.533 1.707-15.36 10.24-13.653 18.773s10.24 15.36 18.773 13.653l128-18.773-18.773-128c-1.707-6.827-8.533-13.653-17.067-13.653zM479.573 261.973c-3.413 0-6.827 1.707-10.24 3.413-40.96 34.133-59.733 71.68-56.32 114.347 11.947 105.813 175.787 192.853 182.613 196.267 8.533 5.12 18.773 1.707 22.187-6.827 5.12-8.533 1.707-18.773-6.827-22.187-1.707 0-155.307-80.213-163.84-168.96-3.413-29.013 10.24-58.027 42.667-83.627 6.827-6.827 8.533-17.067 1.707-23.893-1.707-5.12-6.827-8.533-11.947-8.533zM512 192c-141.653 0-256 114.347-256 256s114.347 256 256 256c29.013 0 56.32-5.12 81.92-13.653 8.533-3.413 13.653-11.947 10.24-22.187-3.413-8.533-11.947-13.653-22.187-10.24-22.187 8.533-46.080 11.947-69.973 11.947-122.88 0-221.867-98.987-221.867-221.867s98.987-221.867 221.867-221.867 221.867 98.987 221.867 221.867c0 32.427-6.827 63.147-20.48 92.16-3.413 8.533 0 18.773 8.533 22.187s18.773 0 22.187-8.533c15.36-34.133 23.893-69.973 23.893-105.813 0-141.653-114.347-256-256-256z" />
<glyph unicode="&#xe905;" glyph-name="share_def" d="M641.707 465.067c-8.533 1.707-15.36 10.24-13.653 18.773l17.067 117.76-117.76 17.067c-8.533 1.707-15.36 10.24-13.653 18.773s10.24 15.36 18.773 13.653l151.893-22.187-22.187-151.893c-3.413-6.827-11.947-13.653-20.48-11.947zM469.333 202.24c-3.413 0-6.827 1.707-10.24 3.413-54.613 44.373-78.507 93.867-73.387 148.48 15.36 141.653 235.52 256 244.053 261.12s18.773 1.707 22.187-6.827c5.12-8.533 1.707-18.773-6.827-22.187-1.707-1.707-213.333-110.933-226.987-233.813-5.12-42.667 15.36-81.92 61.44-119.467 6.827-6.827 8.533-17.067 1.707-23.893-3.413-3.413-8.533-6.827-11.947-6.827zM512 106.667c-187.733 0-341.333 153.6-341.333 341.333s153.6 341.333 341.333 341.333c37.547 0 75.093-6.827 110.933-18.773 8.533-3.413 13.653-11.947 10.24-22.187-3.413-8.533-11.947-13.653-22.187-10.24-32.427 10.24-64.853 17.067-98.987 17.067-168.96 0-307.2-138.24-307.2-307.2s138.24-307.2 307.2-307.2 307.2 138.24 307.2 307.2c0 44.373-8.533 87.040-27.307 128-3.413 8.533 0 18.773 8.533 22.187s18.773 0 22.187-8.533c20.48-44.373 30.72-92.16 30.72-141.653 0-187.733-153.6-341.333-341.333-341.333z" />
<glyph unicode="&#xe906;" glyph-name="share_sel" d="M512 789.333c-187.733 0-341.333-153.6-341.333-341.333s153.6-341.333 341.333-341.333 341.333 153.6 341.333 341.333-153.6 341.333-341.333 341.333zM660.48 480.427c-1.707-8.533-10.24-15.36-18.773-13.653s-15.36 10.24-13.653 18.773l13.653 98.987c-29.013-15.36-209.92-119.467-221.867-232.107-5.12-42.667 15.36-81.92 61.44-119.467 6.827-6.827 8.533-17.067 1.707-23.893-3.413-3.413-8.533-6.827-13.653-6.827-3.413 0-6.827 1.707-10.24 3.413-54.613 44.373-78.507 93.867-73.387 148.48 11.947 119.467 172.373 220.16 226.987 250.88l-87.040 13.653c-8.533 1.707-15.36 10.24-13.653 18.773s10.24 15.36 18.773 13.653l151.893-22.187-22.187-148.48z" />
<glyph unicode="&#xe907;" glyph-name="partook" d="M709.973 543.573c0-8.533 6.827-17.067 17.067-17.067s17.067 8.533 17.067 17.067v119.467c0 8.533-6.827 17.067-17.067 17.067h-117.76c-10.24 0-17.067-8.533-17.067-17.067s6.827-17.067 17.067-17.067h75.093l-211.627-213.333c-6.827-6.827-6.827-17.067 0-23.893s17.067-6.827 23.893 0l213.333 215.040v-80.213zM657.067 215.893h-296.96c-44.373 0-80.213 35.84-80.213 80.213v296.96c0 46.080 37.547 87.040 80.213 87.040h158.72c10.24 0 17.067-6.827 17.067-17.067s-6.827-17.067-17.067-17.067h-158.72c-23.893 0-46.080-25.6-46.080-52.907v-296.96c0-25.6 20.48-46.080 46.080-46.080h296.96c27.307 0 52.907 22.187 52.907 46.080v158.72c0 10.24 6.827 17.067 17.067 17.067s17.067-6.827 17.067-17.067v-158.72c0-40.96-42.667-80.213-87.040-80.213z" />
<glyph unicode="&#xe908;" glyph-name="teaching_test" d="M506.88 789.333l-76.8 78.507-76.8 81.92c-5.12 6.827-13.653 10.24-23.893 10.24h-218.453c-11.947 0-20.48-8.533-20.48-20.48v-87.040c8.533 1.707 17.067 3.413 27.307 3.413h27.307v30.72c0 8.533 6.827 15.36 15.36 15.36h158.72c6.827 0 15.36-3.413 20.48-8.533l61.44-64.853 61.44-63.147c5.12-5.12 6.827-11.947 6.827-18.773v-291.84c0-8.533-6.827-15.36-15.36-15.36h-27.307v-59.733h71.68c10.24 0 18.773 8.533 18.773 18.773v366.933c0 8.533-3.413 17.067-10.24 23.893zM416.427 702.293l-58.027 61.44-76.8 81.92c-6.827 6.827-15.36 10.24-25.6 10.24h-235.52c-10.24 0-20.48-8.533-20.48-20.48v-541.013c0-10.24 8.533-18.773 20.48-18.773h387.413c10.24 0 20.48 8.533 20.48 18.773v384c-1.707 8.533-5.12 17.067-11.947 23.893zM320.853 608.427l-126.293-126.293c-5.12-5.12-10.24-6.827-15.36-6.827s-11.947 1.707-17.067 6.827l-56.32 56.32c-8.533 8.533-8.533 22.187 0 30.72s22.187 8.533 30.72 0l40.96-40.96 110.933 110.933c8.533 8.533 22.187 8.533 30.72 0s10.24-22.187 1.707-30.72z" />
<glyph unicode="&#xe909;" glyph-name="teaching_topic" d="M662.187 960h-426.667c-10.24 0-18.773-8.533-18.773-20.48v-332.8c0-11.947 8.533-20.48 20.48-20.48h199.68c10.24 0 20.48-6.827 23.893-17.067v-54.613c0-5.12 5.12-8.533 10.24-5.12l104.107 68.267c8.533 5.12 17.067 8.533 27.307 8.533h61.44c11.947 0 20.48 8.533 20.48 20.48v332.8c-1.707 11.947-10.24 20.48-22.187 20.48zM578.56 753.493c0-10.24-8.533-17.067-17.067-17.067h-46.080c-10.24 0-17.067 8.533-17.067 17.067v46.080c0 10.24 8.533 17.067 17.067 17.067h46.080c10.24 0 17.067-8.533 17.067-17.067v-46.080zM402.773 753.493c0-10.24-8.533-17.067-17.067-17.067h-46.080c-10.24 0-17.067 8.533-17.067 17.067v46.080c0 10.24 8.533 17.067 17.067 17.067h46.080c10.24 0 17.067-8.533 17.067-17.067v-46.080zM182.613 536.747c-10.24 0-18.773 8.533-18.773 18.773v249.173c0 10.24-8.533 18.773-18.773 18.773h-126.293c-10.24 0-18.773-8.533-18.773-18.773v-307.2c0-10.24 8.533-18.773 18.773-18.773h90.453c8.533 0 17.067-3.413 25.6-6.827l95.573-63.147c3.413-1.707 8.533 0 8.533 5.12v51.2c3.413 8.533 11.947 15.36 22.187 15.36h134.827c10.24 0 18.773 8.533 18.773 18.773v20.48c0 10.24-8.533 18.773-18.773 18.773h-213.333z" />
<glyph unicode="&#xe90a;" glyph-name="service" d="M727.040 471.893c-5.12 0-8.533-1.707-11.947-5.12s-5.12-6.827-5.12-11.947v-151.893c0-5.12 1.707-8.533 5.12-11.947v0 0c3.413-3.413 6.827-5.12 11.947-5.12h44.373c5.12 0 8.533 1.707 11.947 5.12v0 0c3.413 3.413 5.12 6.827 5.12 11.947v151.893c0 3.413-1.707 8.533-3.413 10.24v0c-3.413 3.413-6.827 5.12-11.947 5.12h-46.080zM554.667 239.787c0 0-1.707 0-1.707 1.707-6.827 3.413-11.947 3.413-18.773 1.707s-11.947-5.12-15.36-11.947v0c-1.707-3.413-3.413-8.533-3.413-11.947v0 0c0-1.707 0-3.413 1.707-6.827 1.707-6.827 5.12-11.947 11.947-15.36 0 0 1.707 0 1.707-1.707 6.827-3.413 11.947-3.413 18.773-1.707s11.947 5.12 15.36 11.947c0 0 0 1.707 1.707 1.707 3.413 5.12 3.413 11.947 1.707 18.773-5.12 5.12-8.533 10.24-13.653 13.653zM570.027 268.8c13.653-8.533 23.893-20.48 27.307-35.84 3.413-13.653 1.707-30.72-5.12-44.373v0 0c-8.533-13.653-20.48-23.893-35.84-27.307-13.653-3.413-30.72-1.707-44.373 5.12v0c-13.653 8.533-22.187 20.48-27.307 34.133h-104.107c0 0-1.707 0-1.707 0-35.84 1.707-87.040 11.947-122.88 35.84-29.013 18.773-51.2 46.080-51.2 83.627v134.827c0 13.653 5.12 25.6 13.653 34.133s20.48 13.653 34.133 13.653h6.827c5.12 61.44 32.427 116.053 73.387 157.013 46.080 46.080 109.227 75.093 180.907 75.093 69.973 0 134.827-29.013 180.907-75.093 40.96-40.96 68.267-95.573 73.387-157.013h3.413c13.653 0 25.6-5.12 34.133-13.653 0 0 0 0 1.707-1.707 8.533-8.533 13.653-20.48 13.653-32.427v-151.893c0-13.653-5.12-25.6-13.653-34.133v0c-8.533-8.533-20.48-13.653-34.133-13.653h-44.373c-13.653 0-25.6 5.12-34.133 13.653v0c-8.533 8.533-13.653 20.48-13.653 34.133v151.893c0 13.653 5.12 25.6 13.653 34.133s20.48 13.653 34.133 13.653h8.533c-5.12 52.907-29.013 98.987-64.853 134.827-40.96 40.96-97.28 66.56-158.72 66.56s-117.76-25.6-157.013-64.853c-35.84-35.84-58.027-81.92-64.853-134.827h5.12c13.653 0 25.6-5.12 34.133-13.653 0 0 0 0 1.707-1.707 8.533-8.533 13.653-20.48 13.653-32.427v-136.533c0-8.533-6.827-15.36-15.36-15.36s-15.36 6.827-15.36 15.36v136.533c0 3.413-1.707 8.533-3.413 10.24v0c-3.413 3.413-6.827 5.12-11.947 5.12h-44.373c-5.12 0-8.533-1.707-11.947-5.12s-5.12-6.827-5.12-11.947v-134.827c0-23.893 15.36-42.667 35.84-56.32 30.72-20.48 75.093-29.013 107.52-30.72h105.813c1.707 5.12 3.413 8.533 5.12 13.653v0c8.533 13.653 20.48 23.893 35.84 27.307 10.24 5.12 27.307 3.413 40.96-5.12v0 0z" />
<glyph unicode="&#xe90b;" glyph-name="courses_def" d="M392.533 738.133h-88.747c-46.080 0-81.92-34.133-81.92-81.92v-426.667c0-47.787 35.84-88.747 81.92-88.747h414.72c46.080 0 83.627 42.667 83.627 88.747v426.667c0 47.787-39.253 81.92-83.627 81.92h-76.8c1.707-5.12 20.48-17.067 20.48-17.067 0-5.12-18.773-11.947-20.48-17.067h76.8c27.307 0 49.493-18.773 49.493-47.787v-426.667c0-29.013-22.187-54.613-49.493-54.613h-414.72c-27.307 0-47.787 27.307-47.787 54.613v426.667c0 29.013 20.48 47.787 47.787 47.787h88.747l-23.893 17.067 23.893 17.067zM622.933 669.867h-221.867c-27.307 0-49.493 22.187-49.493 49.493v3.413c0 27.307 22.187 49.493 49.493 49.493h221.867c27.307 0 49.493-22.187 49.493-49.493v-3.413c0-27.307-22.187-49.493-49.493-49.493zM401.067 738.133c-8.533 0-15.36-6.827-15.36-15.36v-3.413c0-8.533 6.827-15.36 15.36-15.36h221.867c8.533 0 15.36 6.827 15.36 15.36v3.413c0 8.533-6.827 15.36-15.36 15.36h-221.867zM617.813 533.333h-211.627c-10.24 0-17.067 6.827-17.067 17.067s6.827 17.067 17.067 17.067h211.627c10.24 0 17.067-6.827 17.067-17.067s-8.533-17.067-17.067-17.067zM617.813 430.933h-211.627c-10.24 0-17.067 6.827-17.067 17.067s6.827 17.067 17.067 17.067h211.627c10.24 0 17.067-6.827 17.067-17.067s-8.533-17.067-17.067-17.067zM508.587 328.533h-102.4c-10.24 0-17.067 6.827-17.067 17.067s6.827 17.067 17.067 17.067h102.4c10.24 0 17.067-6.827 17.067-17.067s-8.533-17.067-17.067-17.067z" />
<glyph unicode="&#xe90c;" glyph-name="courses_sel" d="M605.867 618.667h-221.867c-27.307 0-49.493 22.187-49.493 49.493v3.413c0 27.307 22.187 49.493 49.493 49.493h221.867c27.307 0 49.493-22.187 49.493-49.493v-3.413c0-27.307-22.187-49.493-49.493-49.493zM384 686.933c-8.533 0-15.36-6.827-15.36-15.36v-3.413c0-8.533 6.827-15.36 15.36-15.36h221.867c8.533 0 15.36 6.827 15.36 15.36v3.413c0 8.533-6.827 15.36-15.36 15.36h-221.867zM701.44 686.933h-76.8c1.707-5.12 20.48-17.067 20.48-17.067 0-5.12-17.067-17.067-18.773-20.48l-250.88 3.413-23.893 17.067 23.893 17.067h-88.747c-46.080 0-81.92-34.133-81.92-81.92v-426.667c0-47.787 35.84-88.747 81.92-88.747h414.72c46.080 0 83.627 42.667 83.627 88.747v426.667c0 47.787-39.253 81.92-83.627 81.92zM491.52 277.333h-102.4c-10.24 0-17.067 6.827-17.067 17.067s6.827 17.067 17.067 17.067h102.4c10.24 0 17.067-6.827 17.067-17.067s-8.533-17.067-17.067-17.067zM600.747 379.733h-211.627c-10.24 0-17.067 6.827-17.067 17.067s6.827 17.067 17.067 17.067h211.627c10.24 0 17.067-6.827 17.067-17.067s-8.533-17.067-17.067-17.067zM600.747 482.133h-211.627c-10.24 0-17.067 6.827-17.067 17.067s6.827 17.067 17.067 17.067h211.627c10.24 0 17.067-6.827 17.067-17.067s-8.533-17.067-17.067-17.067z" />
<glyph unicode="&#xe90d;" glyph-name="chat_def" d="M979.478 381.217c-13.357 0-22.261 8.904-22.261 22.261v467.478c0 20.035-6.678 44.522-20.035 44.522h-752.417c-13.357 0-22.261 8.904-22.261 22.261s8.904 22.261 22.261 22.261h752.417c42.296 0 64.557-46.748 64.557-89.043v-467.478c0-13.357-8.904-22.261-22.261-22.261zM251.548 122.991c-4.452 0-11.13 0-13.357 2.226-8.904 4.452-15.583 11.13-15.583 20.035v80.139h-135.791c-44.522 0-86.817 33.391-86.817 73.461v458.574c0 40.070 40.070 69.009 86.817 69.009h730.157c44.522 0 73.461-31.165 73.461-69.009v-458.574c0-40.070-28.939-73.461-73.461-73.461h-391.791l-162.504-100.174c-2.226-2.226-6.678-2.226-11.13-2.226zM86.817 781.913c-17.809 0-42.296-8.904-42.296-24.487v-458.574c0-15.583 24.487-28.939 42.296-28.939h164.73c13.357 0 15.583-8.904 15.583-22.261v-62.33l138.017 82.365c4.452 2.226 11.13 2.226 15.583 2.226h396.243c17.809 0 28.939 15.583 28.939 28.939v458.574c0 15.583-11.13 24.487-28.939 24.487h-730.157zM253.774 483.617c-26.713 0-51.2 22.261-51.2 48.974s22.261 48.974 51.2 48.974c26.713 0 51.2-22.261 51.2-48.974s-24.487-48.974-51.2-48.974zM654.47 483.617c-26.713 0-51.2 22.261-51.2 48.974s22.261 48.974 51.2 48.974c26.713 0 51.2-22.261 51.2-48.974s-24.487-48.974-51.2-48.974zM454.122 483.617c-26.713 0-51.2 22.261-51.2 48.974s22.261 48.974 51.2 48.974c26.713 0 51.2-22.261 51.2-48.974s-24.487-48.974-51.2-48.974z" />
<glyph unicode="&#xe90e;" glyph-name="chat_sel" d="M979.478 381.217c-13.357 0-22.261 8.904-22.261 22.261v467.478c0 20.035-6.678 44.522-20.035 44.522h-752.417c-13.357 0-22.261 8.904-22.261 22.261s8.904 22.261 22.261 22.261h752.417c42.296 0 64.557-46.748 64.557-89.043v-467.478c0-13.357-8.904-22.261-22.261-22.261zM816.974 826.435h-730.157c-46.748 0-86.817-28.939-86.817-69.009v-458.574c0-40.070 42.296-73.461 86.817-73.461h135.791v-80.139c0-8.904 6.678-15.583 15.583-20.035 4.452-2.226 8.904-2.226 13.357-2.226s8.904 0 13.357 2.226l162.504 100.174h391.791c44.522 0 73.461 33.391 73.461 73.461v458.574c-2.226 37.843-31.165 69.009-75.687 69.009zM253.774 483.617c-26.713 0-51.2 22.261-51.2 48.974s22.261 48.974 51.2 48.974c26.713 0 51.2-22.261 51.2-48.974s-24.487-48.974-51.2-48.974zM454.122 483.617c-26.713 0-51.2 22.261-51.2 48.974s22.261 48.974 51.2 48.974c26.713 0 51.2-22.261 51.2-48.974s-24.487-48.974-51.2-48.974zM654.47 483.617c-26.713 0-51.2 22.261-51.2 48.974s22.261 48.974 51.2 48.974c26.713 0 51.2-22.261 51.2-48.974s-24.487-48.974-51.2-48.974z" />
<glyph unicode="&#xe90f;" glyph-name="reply_ic" d="M384 521.387c-17.067 0-32.427-15.36-32.427-32.427 0-18.773 13.653-32.427 32.427-32.427 17.067 0 32.427 15.36 32.427 32.427s-13.653 32.427-32.427 32.427zM512 521.387c-17.067 0-32.427-15.36-32.427-32.427 0-18.773 13.653-32.427 32.427-32.427 17.067 0 32.427 15.36 32.427 32.427s-15.36 32.427-32.427 32.427zM640 521.387c-17.067 0-32.427-15.36-32.427-32.427 0-18.773 13.653-32.427 32.427-32.427 17.067 0 32.427 15.36 32.427 32.427-1.707 17.067-15.36 32.427-32.427 32.427zM703.147 686.933h-382.293c-35.84 0-63.147-29.013-63.147-66.56v-247.467c0-35.84 29.013-69.973 64.853-69.973h97.28c17.067-18.773 87.040-90.453 87.040-90.453 3.413-3.413 8.533-3.413 11.947 0 0 0 51.2 58.027 85.333 90.453h98.987c35.84 0 64.853 34.133 64.853 69.973v247.467c0 37.547-29.013 66.56-64.853 66.56zM735.573 372.907c0-18.773-15.36-37.547-34.133-37.547h-97.28c-11.947 0-22.187-11.947-22.187-11.947l-68.267-71.68-68.267 71.68c0 0-13.653 11.947-23.893 11.947h-97.28c-18.773 0-34.133 18.773-34.133 37.547v247.467c0 18.773 13.653 32.427 32.427 32.427h382.293c17.067 0 32.427-15.36 32.427-32.427v-247.467z" />
<glyph unicode="&#xe910;" glyph-name="sign_ic" d="M512 690.347c-97.28 0-175.787-78.507-175.787-177.493 0-97.28 78.507-177.493 175.787-177.493s175.787 78.507 175.787 177.493c0 98.987-78.507 177.493-175.787 177.493zM512 72.533c0 0-307.2 271.36-307.2 442.027s138.24 308.907 307.2 308.907c168.96 0 307.2-138.24 307.2-308.907s-307.2-442.027-307.2-442.027zM597.333 499.2h-85.333c-10.24 0-17.067 6.827-17.067 17.067v102.4c0 10.24 6.827 17.067 17.067 17.067s17.067-6.827 17.067-17.067v-85.333h68.267c10.24 0 17.067-6.827 17.067-17.067s-6.827-17.067-17.067-17.067z" />
<glyph unicode="&#xe911;" glyph-name="scan_code" d="M764.587 531.627c-11.947 0-20.48 10.24-20.48 20.48v105.813c0 11.947-10.24 20.48-20.48 20.48h-126.293c-11.947 0-20.48 10.24-20.48 20.48 0 11.947 10.24 20.48 20.48 20.48h126.293c34.133 0 63.147-29.013 63.147-63.147v-105.813c-1.707-8.533-11.947-18.773-22.187-18.773zM259.413 531.627c-11.947 0-20.48 10.24-20.48 20.48v105.813c0 34.133 29.013 63.147 63.147 63.147h105.813c11.947 0 20.48-10.24 20.48-20.48 0-11.947-10.24-20.48-20.48-20.48h-105.813c-11.947 0-20.48-10.24-20.48-20.48v-105.813c0-11.947-10.24-22.187-22.187-22.187zM406.187 174.933h-105.813c-34.133 0-63.147 29.013-63.147 63.147v105.813c0 11.947 10.24 20.48 20.48 20.48 11.947 0 20.48-10.24 20.48-20.48v-105.813c0-11.947 10.24-20.48 20.48-20.48h105.813c11.947 0 20.48-10.24 20.48-20.48s-6.827-22.187-18.773-22.187zM721.92 174.933h-126.293c-11.947 0-20.48 10.24-20.48 20.48s10.24 20.48 20.48 20.48h126.293c11.947 0 20.48 10.24 20.48 20.48v105.813c0 11.947 10.24 20.48 20.48 20.48 11.947 0 20.48-10.24 20.48-20.48v-105.813c1.707-32.427-27.307-61.44-61.44-61.44z" />
<glyph unicode="&#xe912;" glyph-name="notice_ic" d="M421.547 127.147c-17.067 0-32.427 5.12-46.080 15.36-17.067 11.947-29.013 30.72-34.133 52.907v5.12c-1.707 8.533 5.12 18.773 13.653 20.48s18.773-5.12 20.48-13.653v-5.12c1.707-11.947 8.533-23.893 18.773-30.72s22.187-10.24 35.84-8.533l85.333 15.36c11.947 1.707 23.893 8.533 30.72 18.773s10.24 22.187 8.533 35.84v5.12c-1.707 8.533 5.12 18.773 13.653 20.48s18.773-5.12 20.48-13.653v-5.12c3.413-20.48-1.707-42.667-13.653-61.44s-30.72-29.013-52.907-34.133l-85.333-15.36c-5.12-1.707-10.24-1.707-15.36-1.707zM233.813 181.76c-17.067 0-34.133 8.533-44.373 23.893l-29.013 46.080c-10.24 17.067-10.24 39.253 1.707 56.32l293.547 419.84c10.24 13.653 27.307 22.187 42.667 22.187 17.067 0 32.427-8.533 42.667-23.893l238.933-377.173c8.533-15.36 10.24-32.427 3.413-47.787s-20.48-27.307-37.547-30.72l-503.467-88.747c-3.413 0-6.827 0-8.533 0zM728.747 560.64c-5.12 0-11.947 3.413-15.36 8.533-5.12 8.533-1.707 18.773 5.12 23.893l107.52 66.56c8.533 5.12 18.773 1.707 23.893-5.12 5.12-8.533 1.707-18.773-5.12-23.893l-107.52-66.56c-3.413-1.707-5.12-3.413-8.533-3.413zM655.36 683.52c-3.413 0-5.12 0-8.533 1.707-8.533 5.12-11.947 15.36-6.827 23.893l29.013 51.2c5.12 8.533 15.36 11.947 23.893 6.827s11.947-15.36 6.827-23.893l-29.013-51.2c-3.413-5.12-10.24-8.533-15.36-8.533zM795.307 442.88c-8.533 0-17.067 6.827-17.067 17.067s6.827 17.067 17.067 17.067h59.733c0 0 0 0 0 0 8.533 0 17.067-6.827 17.067-17.067s-6.827-17.067-17.067-17.067h-59.733c0 0 0 0 0 0z" />
<glyph unicode="&#xe913;" glyph-name="picture_ic" d="M433.493 413.867c-11.947 0-23.893 1.707-34.133 6.827s-20.48 10.24-27.307 18.773c-8.533 8.533-13.653 17.067-18.773 27.307s-6.827 22.187-6.827 34.133c0 11.947 1.707 23.893 6.827 34.133s10.24 20.48 18.773 27.307 17.067 13.653 27.307 18.773c10.24 5.12 22.187 6.827 34.133 6.827s23.893-1.707 34.133-6.827c10.24-5.12 20.48-10.24 27.307-18.773 8.533-8.533 13.653-17.067 18.773-27.307s6.827-22.187 6.827-34.133c0-11.947-1.707-23.893-6.827-34.133s-10.24-20.48-18.773-27.307c-8.533-8.533-17.067-13.653-27.307-18.773-11.947-5.12-22.187-6.827-34.133-6.827zM433.493 552.107c-13.653 0-27.307-5.12-37.547-15.36s-15.36-22.187-15.36-37.547c0-13.653 5.12-27.307 15.36-37.547s23.893-15.36 37.547-15.36c13.653 0 27.307 5.12 37.547 15.36s15.36 22.187 15.36 37.547c0 13.653-5.12 27.307-15.36 37.547s-23.893 15.36-37.547 15.36zM798.72 671.573c-6.827 6.827-13.653 11.947-22.187 15.36s-17.067 5.12-27.307 5.12h-474.453c-10.24 0-18.773-1.707-27.307-5.12s-15.36-8.533-22.187-15.36c-6.827-6.827-11.947-13.653-15.36-22.187s-5.12-17.067-5.12-27.307v-348.16c0-8.533 1.707-18.773 5.12-27.307s8.533-15.36 15.36-22.187c6.827-6.827 13.653-11.947 22.187-15.36s17.067-5.12 27.307-5.12h474.453c10.24 0 18.773 1.707 27.307 5.12s15.36 8.533 22.187 15.36c6.827 6.827 11.947 13.653 15.36 22.187s5.12 17.067 5.12 27.307v348.16c0 8.533-1.707 18.773-5.12 27.307-3.413 6.827-8.533 15.36-15.36 22.187zM240.64 622.080c0 18.773 15.36 34.133 35.84 34.133h474.453c18.773 0 35.84-15.36 35.84-34.133v-249.173c-17.067 10.24-35.84 18.773-54.613 25.6-32.427 10.24-63.147 15.36-93.867 15.36-54.613 0-109.227-17.067-155.307-51.2-17.067-11.947-32.427-25.6-47.787-42.667 0 0 0 0 0 0-1.707 1.707-5.12 3.413-6.827 5.12-10.24 6.827-22.187 13.653-34.133 18.773-23.893 10.24-51.2 15.36-76.8 15.36-18.773 0-37.547-3.413-56.32-8.533-6.827-1.707-13.653-5.12-20.48-6.827v278.187zM240.64 273.92v32.427c10.24 5.12 20.48 10.24 30.72 13.653 15.36 5.12 30.72 6.827 46.080 6.827 22.187 0 42.667-5.12 63.147-13.653 11.947-5.12 22.187-11.947 32.427-18.773 0 0 0 0 1.707 1.707-13.653-17.067-23.893-35.84-32.427-56.32v0h-107.52c-18.773 0-34.133 15.36-34.133 34.133zM749.227 239.787h-329.387c8.533 17.067 18.773 32.427 30.72 46.080 15.36 18.773 32.427 35.84 52.907 49.493 40.96 29.013 87.040 44.373 134.827 44.373 27.307 0 54.613-5.12 80.213-13.653 23.893-8.533 46.080-18.773 66.56-34.133v-56.32c-1.707-20.48-17.067-35.84-35.84-35.84z" />
<glyph unicode="&#xe914;" glyph-name="weChat" d="M785.067 381.44c-15.36 0-32.427 17.067-32.427 34.133s17.067 34.133 32.427 34.133c23.893 0 40.96-17.067 40.96-34.133 0-18.773-17.067-34.133-40.96-34.133zM605.867 381.44c-17.067 0-32.427 17.067-32.427 34.133s17.067 34.133 32.427 34.133c23.893 0 40.96-17.067 40.96-34.133 0-18.773-17.067-34.133-40.96-34.133zM972.8 338.773c0 134.827-129.707 244.053-276.48 244.053-155.307 0-278.187-109.227-278.187-244.053s122.88-244.053 278.187-244.053c32.427 0 64.853 8.533 97.28 17.067l88.747-51.2-23.893 83.627c64.853 52.907 114.347 119.467 114.347 194.56zM271.36 606.72c-23.893 0-49.493 17.067-49.493 42.667s23.893 42.667 49.493 42.667c23.893 0 40.96-17.067 40.96-42.667s-17.067-42.667-40.96-42.667zM500.053 692.053c23.893 0 40.96-17.067 40.96-42.667s-17.067-42.667-40.96-42.667c-23.893 0-49.493 17.067-49.493 42.667s23.893 42.667 49.493 42.667zM675.84 599.893c10.24 0 20.48 0 30.72-1.707-29.013 134.827-168.96 235.52-329.387 235.52-179.2 0-325.973-126.293-325.973-285.013 0-92.16 49.493-167.253 129.707-226.987l-32.427-100.693 114.347 58.027c40.96-8.533 73.387-17.067 114.347-17.067 10.24 0 20.48 0 30.72 1.707-6.827 22.187-10.24 46.080-10.24 69.973 0 148.48 122.88 266.24 278.187 266.24z" />
<glyph unicode="&#xe915;" glyph-name="like_small" d="M506.88 273.92c-141.653 75.093-211.627 174.080-187.733 262.827 13.653 51.2 58.027 87.040 107.52 87.040 32.427 0 63.147-15.36 85.333-46.080 22.187 29.013 52.907 46.080 85.333 46.080 49.493 0 93.867-35.84 107.52-87.040 22.187-88.747-47.787-187.733-187.733-262.827-1.707-1.707-3.413-1.707-5.12-1.707s-3.413 0-5.12 1.707z" />
<glyph unicode="&#xe916;" glyph-name="like_big" d="M512 207.36c-5.12 0-10.24 1.707-15.36 3.413-186.027 100.693-278.187 232.107-247.467 353.28 18.773 73.387 81.92 124.587 153.6 124.587 40.96 0 78.507-17.067 109.227-49.493 30.72 32.427 68.267 49.493 109.227 49.493 71.68 0 134.827-51.2 153.6-124.587 30.72-121.173-61.44-252.587-247.467-353.28-5.12-1.707-10.24-3.413-15.36-3.413zM402.773 654.507c-56.32 0-105.813-40.96-121.173-98.987-27.307-104.107 59.733-221.867 230.4-314.027 170.667 92.16 257.707 209.92 230.4 314.027-15.36 58.027-64.853 98.987-121.173 98.987-37.547 0-69.973-17.067-95.573-51.2l-13.653-17.067-13.653 17.067c-25.6 34.133-59.733 51.2-95.573 51.2z" />
<glyph unicode="&#xe917;" glyph-name="like_solid" d="M512 207.36c-5.12 0-10.24 1.707-15.36 3.413-186.027 100.693-278.187 232.107-247.467 353.28 18.773 73.387 81.92 124.587 153.6 124.587 40.96 0 78.507-17.067 109.227-49.493 30.72 32.427 68.267 49.493 109.227 49.493 71.68 0 134.827-51.2 153.6-124.587 30.72-121.173-61.44-252.587-247.467-353.28-5.12-1.707-10.24-3.413-15.36-3.413z" />
<glyph unicode="&#xe918;" glyph-name="cloud-correction" d="M756.053 555.52l-13.653 1.707-8.533 13.653c-47.787 87.040-139.947 141.653-240.64 141.653-131.413 0-244.053-93.867-269.653-220.16l-3.413-15.36-15.36-6.827c-56.32-20.48-95.573-75.093-95.573-136.533 0-80.213 64.853-150.187 145.067-150.187 11.947 0 71.68-1.707 238.933-1.707v0c170.667 0 226.987 6.827 238.933 6.827 100.693 0 182.613 83.627 182.613 184.32 0 92.16-68.267 172.373-158.72 182.613zM672.427 488.96c-51.2-54.613-102.4-109.227-153.6-163.84-8.533-10.24-35.84-49.493-56.32-44.373-13.653 3.413-25.6 20.48-32.427 30.72-29.013 30.72-58.027 63.147-87.040 93.867-6.827 10.24-5.12 29.013 3.413 35.84 11.947 13.653 30.72 5.12 40.96-5.12 27.307-29.013 54.613-59.733 81.92-88.747 42.667 46.080 85.333 92.16 128 138.24 15.36 18.773 30.72 39.253 54.613 51.2 25.6 0 34.133-29.013 20.48-47.787z" />
<glyph unicode="&#xe919;" glyph-name="cloud_resources" d="M530.773 186.88h-184.32c-78.507 0-141.653 61.44-141.653 138.24s63.147 138.24 141.653 138.24c0 0 1.707 0 1.707 0h22.187c1.707 0 8.533 0 17.067 8.533s5.12 17.067 5.12 25.6c0 116.053 95.573 209.92 215.040 209.92 56.32 0 105.813-20.48 145.067-54.613 5.12-3.413 3.413-3.413 6.827-8.533 5.12-6.827 11.947-11.947 20.48-11.947 13.653 0 23.893 10.24 23.893 23.893 0 8.533-5.12 15.36-10.24 20.48-3.413 3.413-3.413 3.413-6.827 6.827-46.080 42.667-109.227 69.973-179.2 69.973-139.947 0-254.293-107.52-261.12-244.053-104.107 0-189.44-83.627-189.44-184.32 0-102.4 85.333-184.32 189.44-184.32h184.32c13.653 0 23.893 10.24 23.893 23.893 0 11.947-10.24 22.187-23.893 22.187zM855.040 326.827h-402.773c-6.827 0-11.947-5.12-11.947-11.947v-69.973c0-6.827 5.12-11.947 11.947-11.947h402.773c6.827 0 11.947 5.12 11.947 11.947v69.973c0 6.827-5.12 11.947-11.947 11.947zM795.307 256.853c-13.653 0-23.893 10.24-23.893 23.893 0 11.947 10.24 23.893 23.893 23.893s23.893-10.24 23.893-23.893c0-13.653-10.24-23.893-23.893-23.893zM855.040 465.067h-402.773c-6.827 0-11.947-5.12-11.947-11.947v-69.973c0-6.827 5.12-11.947 11.947-11.947h402.773c6.827 0 11.947 5.12 11.947 11.947v69.973c0 6.827-5.12 11.947-11.947 11.947zM795.307 395.093c-13.653 0-23.893 10.24-23.893 23.893 0 11.947 10.24 23.893 23.893 23.893s23.893-10.24 23.893-23.893c0-13.653-10.24-23.893-23.893-23.893z" />
<glyph unicode="&#xe91a;" glyph-name="riokin_def" d="M725.333 106.667h-416.427c-10.24 0-17.067 8.533-17.067 17.067s6.827 17.067 17.067 17.067h416.427c6.827 1.707 20.48 27.307 29.013 51.2 63.147 211.627 64.853 278.187 64.853 279.893 0 8.533-1.707 13.653-5.12 17.067-6.827 5.12-17.067 6.827-20.48 6.827h-199.68l6.827 22.187c34.133 124.587 20.48 184.32 1.707 211.627-13.653 20.48-30.72 25.6-34.133 25.6-22.187 0-22.187-8.533-22.187-20.48 0-3.413 0-6.827-1.707-8.533-1.707-126.293-124.587-221.867-129.707-226.987l-5.12-3.413h-90.453c-10.24 0-17.067 8.533-17.067 17.067s6.827 17.067 17.067 17.067h78.507c20.48 17.067 110.933 100.693 110.933 197.973v5.12l1.707 1.707c0 0 0 1.707 0 1.707 1.707 35.84 22.187 52.907 58.027 52.907h1.707c1.707 0 34.133-3.413 58.027-40.96 30.72-46.080 34.133-119.467 8.533-218.453h153.6c1.707 0 25.6 1.707 44.373-15.36 8.533-6.827 17.067-20.48 17.067-42.667 0-3.413 0-69.973-66.56-288.427-5.12-23.893-25.6-76.8-59.733-76.8zM348.16 106.667h-116.053c-15.36 0-39.253 10.24-39.253 39.253l-22.187 344.747c0 17.067 10.24 39.253 39.253 39.253h138.24c5.12 0 27.307-1.707 34.133-20.48l1.707-3.413v-368.64c0-5.12-1.707-15.36-8.533-22.187-5.12-3.413-13.653-8.533-27.307-8.533zM209.92 495.787c-1.707 0-5.12 0-5.12-3.413l22.187-344.747c0-3.413 0-5.12 5.12-5.12h116.053c0 0 1.707 0 1.707 0v351.573c-1.707 0-1.707 0-1.707 0l-138.24 1.707z" />
<glyph unicode="&#xe91b;" glyph-name="riokin_sel" d="M805.547 516.267h-187.733c73.387 259.413-49.493 273.067-49.493 273.067-52.907 0-40.96-39.253-44.373-46.080 0-128-139.947-226.987-139.947-226.987v-360.107c0-35.84 49.493-47.787 69.973-47.787h281.6c27.307 0 47.787 68.267 47.787 68.267 69.973 226.987 69.973 295.253 69.973 295.253 0 47.787-47.787 44.373-47.787 44.373v0 0zM307.2 516.267h-112.64c-23.893 0-23.893-22.187-23.893-22.187l23.893-363.52c0-23.893 23.893-23.893 23.893-23.893h97.28c20.48 0 20.48 15.36 20.48 15.36v366.933c-1.707 27.307-29.013 27.307-29.013 27.307v0 0z" />
<glyph unicode="&#xe91c;" glyph-name="browse_ic" d="M512 598.187c-167.253 0-256-158.72-256-158.72s95.573-141.653 256-141.653c160.427 0 256 141.653 256 141.653s-78.507 158.72-256 158.72zM512 357.547c-51.2 0-92.16 40.96-92.16 90.453s40.96 90.453 92.16 90.453c51.2 0 92.16-40.96 92.16-90.453s-40.96-90.453-92.16-90.453zM512 483.84c-22.187 0-40.96-18.773-40.96-39.253 0-22.187 18.773-39.253 40.96-39.253s40.96 18.773 40.96 39.253c0 22.187-18.773 39.253-40.96 39.253z" />
</font>
</defs>
</svg>
